HIERARCHY
ROOT pelvis
{
	OFFSET -0.001795 -0.223333 0.028219
	CHANNELS 6 Xposition Yposition Zposition Zrotation Yrotation Xrotation 
	JOINT left_hip
	{
		OFFSET 0.069520 -0.091406 -0.006815
		CHANNELS 3 Zrotation Yrotation Xrotation
		JOINT left_knee
		{
			OFFSET 0.034277 -0.375199 -0.004496
			CHANNELS 3 Zrotation Yrotation Xrotation
			JOINT left_ankle
			{
				OFFSET -0.013596 -0.397960 -0.043693
				CHANNELS 3 Zrotation Yrotation Xrotation
				JOINT left_foot
				{
					OFFSET 0.026358 -0.055791 0.119288
					CHANNELS 3 Zrotation Yrotation Xrotation
					End Site
					{
						OFFSET 0.000000 0.000000 0.000000
					}
				}
			}
		}
	}
	JOINT right_hip
	{
		OFFSET -0.067670 -0.090522 -0.004320
		CHANNELS 3 Zrotation Yrotation Xrotation
		JOINT right_knee
		{
			OFFSET -0.038290 -0.382569 -0.008850
			CHANNELS 3 Zrotation Yrotation Xrotation
			JOINT right_ankle
			{
				OFFSET 0.015774 -0.398415 -0.042312
				CHANNELS 3 Zrotation Yrotation Xrotation
				JOINT right_foot
				{
					OFFSET -0.025372 -0.048144 0.123348
					CHANNELS 3 Zrotation Yrotation Xrotation
					End Site
					{
						OFFSET 0.000000 0.000000 0.000000
					}
				}
			}
		}
	}
	JOINT spine1
	{
		OFFSET -0.002533 0.108963 -0.026696
		CHANNELS 3 Zrotation Yrotation Xrotation
		JOINT spine2
		{
			OFFSET 0.005487 0.135180 0.001092
			CHANNELS 3 Zrotation Yrotation Xrotation
			JOINT spine3
			{
				OFFSET 0.001457 0.052922 0.025425
				CHANNELS 3 Zrotation Yrotation Xrotation
				JOINT neck
				{
					OFFSET -0.002778 0.213870 -0.042857
					CHANNELS 3 Zrotation Yrotation Xrotation
					JOINT head
					{
						OFFSET 0.005152 0.064970 0.051349
						CHANNELS 3 Zrotation Yrotation Xrotation
						End Site
						{
							OFFSET 0.000000 0.000000 0.000000
						}
					}
				}
				JOINT left_collar
				{
					OFFSET 0.078845 0.121749 -0.034090
					CHANNELS 3 Zrotation Yrotation Xrotation
					JOINT left_shoulder
					{
						OFFSET 0.090977 0.030469 -0.008868
						CHANNELS 3 Zrotation Yrotation Xrotation
						JOINT left_elbow
						{
							OFFSET 0.259612 -0.012772 -0.027456
							CHANNELS 3 Zrotation Yrotation Xrotation
							JOINT left_wrist
							{
								OFFSET 0.249234 0.008986 -0.001171
								CHANNELS 3 Zrotation Yrotation Xrotation
								JOINT left_index1
								{
									OFFSET 0.102484 -0.008981 0.021491
									CHANNELS 3 Zrotation Yrotation Xrotation
									JOINT left_index2
									{
										OFFSET 0.031800 0.002932 0.003266
										CHANNELS 3 Zrotation Yrotation Xrotation
										JOINT left_index3
										{
											OFFSET 0.022396 -0.001728 0.000648
											CHANNELS 3 Zrotation Yrotation Xrotation
											End Site
											{
												OFFSET 0.000000 0.000000 0.000000
											}
										}
									}
								}
								JOINT left_middle1
								{
									OFFSET 0.109780 -0.006115 -0.001322
									CHANNELS 3 Zrotation Yrotation Xrotation
									JOINT left_middle2
									{
										OFFSET 0.030515 0.001220 -0.004069
										CHANNELS 3 Zrotation Yrotation Xrotation
										JOINT left_middle3
										{
											OFFSET 0.023549 -0.001485 -0.003489
											CHANNELS 3 Zrotation Yrotation Xrotation
											End Site
											{
												OFFSET 0.000000 0.000000 0.000000
											}
										}
									}
								}
								JOINT left_pinky1
								{
									OFFSET 0.084607 -0.013848 -0.040620
									CHANNELS 3 Zrotation Yrotation Xrotation
									JOINT left_pinky2
									{
										OFFSET 0.015802 -0.000399 -0.010826
										CHANNELS 3 Zrotation Yrotation Xrotation
										JOINT left_pinky3
										{
											OFFSET 0.015880 -0.001251 -0.010132
											CHANNELS 3 Zrotation Yrotation Xrotation
											End Site
											{
												OFFSET 0.000000 0.000000 0.000000
											}
										}
									}
								}
								JOINT left_ring1
								{
									OFFSET 0.097812 -0.008749 -0.024310
									CHANNELS 3 Zrotation Yrotation Xrotation
									JOINT left_ring2
									{
										OFFSET 0.027834 0.001644 -0.004373
										CHANNELS 3 Zrotation Yrotation Xrotation
										JOINT left_ring3
										{
											OFFSET 0.022662 -0.001388 -0.006477
											CHANNELS 3 Zrotation Yrotation Xrotation
											End Site
											{
												OFFSET 0.000000 0.000000 0.000000
											}
										}
									}
								}
								JOINT left_thumb1
								{
									OFFSET 0.041933 -0.019946 0.026537
									CHANNELS 3 Zrotation Yrotation Xrotation
									JOINT left_thumb2
									{
										OFFSET 0.017701 0.001768 0.024200
										CHANNELS 3 Zrotation Yrotation Xrotation
										JOINT left_thumb3
										{
											OFFSET 0.021232 -0.003607 0.014869
											CHANNELS 3 Zrotation Yrotation Xrotation
											End Site
											{
												OFFSET 0.000000 0.000000 0.000000
											}
										}
									}
								}
							}
						}
					}
				}
				JOINT right_collar
				{
					OFFSET -0.081759 0.118833 -0.038615
					CHANNELS 3 Zrotation Yrotation Xrotation
					JOINT right_shoulder
					{
						OFFSET -0.096012 0.032551 -0.009143
						CHANNELS 3 Zrotation Yrotation Xrotation
						JOINT right_elbow
						{
							OFFSET -0.253742 -0.013329 -0.021401
							CHANNELS 3 Zrotation Yrotation Xrotation
							JOINT right_wrist
							{
								OFFSET -0.255298 0.007772 -0.005559
								CHANNELS 3 Zrotation Yrotation Xrotation
								JOINT right_index1
								{
									OFFSET -0.099298 -0.008649 0.024635
									CHANNELS 3 Zrotation Yrotation Xrotation
									JOINT right_index2
									{
										OFFSET -0.032181 0.002899 0.002368
										CHANNELS 3 Zrotation Yrotation Xrotation
										JOINT right_index3
										{
											OFFSET -0.022296 -0.001779 -0.000383
											CHANNELS 3 Zrotation Yrotation Xrotation
											End Site
											{
												OFFSET 0.000000 0.000000 0.000000
											}
										}
									}
								}
								JOINT right_middle1
								{
									OFFSET -0.107157 -0.005477 0.000782
									CHANNELS 3 Zrotation Yrotation Xrotation
									JOINT right_middle2
									{
										OFFSET -0.030348 0.001453 -0.004161
										CHANNELS 3 Zrotation Yrotation Xrotation
										JOINT right_middle3
										{
											OFFSET -0.023137 -0.001426 -0.003914
											CHANNELS 3 Zrotation Yrotation Xrotation
											End Site
											{
												OFFSET 0.000000 0.000000 0.000000
											}
										}
									}
								}
								JOINT right_pinky1
								{
									OFFSET -0.083030 -0.013642 -0.039365
									CHANNELS 3 Zrotation Yrotation Xrotation
									JOINT right_pinky2
									{
										OFFSET -0.015632 -0.000323 -0.011126
										CHANNELS 3 Zrotation Yrotation Xrotation
										JOINT right_pinky3
										{
											OFFSET -0.015715 -0.001039 -0.010114
											CHANNELS 3 Zrotation Yrotation Xrotation
											End Site
											{
												OFFSET 0.000000 0.000000 0.000000
											}
										}
									}
								}
								JOINT right_ring1
								{
									OFFSET -0.095789 -0.008266 -0.022902
									CHANNELS 3 Zrotation Yrotation Xrotation
									JOINT right_ring2
									{
										OFFSET -0.027596 0.001722 -0.004571
										CHANNELS 3 Zrotation Yrotation Xrotation
										JOINT right_ring3
										{
											OFFSET -0.022418 -0.001393 -0.006963
											CHANNELS 3 Zrotation Yrotation Xrotation
											End Site
											{
												OFFSET 0.000000 0.000000 0.000000
											}
										}
									}
								}
								JOINT right_thumb1
								{
									OFFSET -0.037817 -0.020145 0.030126
									CHANNELS 3 Zrotation Yrotation Xrotation
									JOINT right_thumb2
									{
										OFFSET -0.017439 0.000834 0.024485
										CHANNELS 3 Zrotation Yrotation Xrotation
										JOINT right_thumb3
										{
											OFFSET -0.021343 -0.004986 0.014434
											CHANNELS 3 Zrotation Yrotation Xrotation
											End Site
											{
												OFFSET 0.000000 0.000000 0.000000
											}
										}
									}
								}
							}
						}
					}
				}
			}
		}
	}
}
MOTION
Frames: 6
Frame Time: 0.034483
0.311256 0.075761 -4.895008 -5.955829 -16.752209 2.318161 8.982264 1.973660 -4.708507 2.214292 15.736458 14.676112 -4.905711 2.262719 1.888298 3.109610 11.368711 -19.710831 -6.124322 -4.622901 -47.319382 0.703937 -15.085718 68.691444 8.351880 -8.640159 11.293970 -15.156546 2.931110 -0.169315 1.957901 -5.222237 25.089609 4.071694 -0.912382 -4.517852 2.136872 -0.933699 2.573352 3.783516 9.796044 -2.629877 -2.000207 7.006398 -14.226555 1.091638 -12.469125 -10.520802 -26.811506 -8.467281 9.021967 48.312443 -57.714378 -52.205894 5.146877 1.497451 -19.008307 -4.466450 13.326902 3.558355 -34.819054 -1.943431 0.729500 -13.885583 -0.675647 2.868397 -34.427574 1.527079 -13.592748 -27.653965 0.293473 -0.915278 -13.667678 -3.582071 2.304122 -41.518028 -16.828259 -16.961687 -10.230606 -5.460169 -1.424906 -3.943808 0.731304 -12.228892 -41.858669 -7.269502 -12.885061 -27.599958 -4.431559 -0.430362 -10.085711 -6.590540 -2.270818 -7.055680 20.088451 13.466153 3.555051 10.580720 1.871345 -17.281466 -0.208000 8.301885 12.906273 4.308530 -0.831454 43.153336 -8.076126 21.610788 -16.721634 37.020439 -15.652967 13.970592 -43.845318 -5.391472 15.257917 -10.401176 1.566051 25.839746 1.840816 6.680171 -3.970632 -1.786784 -1.739085 48.921368 1.392087 -11.987172 7.163885 0.477600 3.763397 9.916425 3.664348 4.078827 14.296888 6.902786 -4.934630 7.761165 2.786027 -2.733931 7.472444 1.070015 -4.245169 36.433769 6.647376 -7.439194 19.943766 3.356051 0.341659 10.032099 5.058534 -1.017627 5.933712 -17.312229 5.686960 -3.741613 -15.557645 4.379173 16.648260 1.613286 7.061139
0.303742 0.070357 -4.891525 -5.007442 -18.555920 3.025116 8.080058 2.958946 -1.907066 1.897538 16.908775 12.685750 -3.701652 0.147628 1.797446 -2.703113 13.199433 -19.375732 -4.153053 -6.037355 -39.743111 0.644518 -14.399040 50.965370 7.670557 -9.188853 12.725314 -13.184010 1.864078 4.585374 1.922190 -4.465744 22.371674 3.840749 -0.735024 -5.574644 2.435235 -1.191425 3.783369 4.180924 10.389589 0.357089 -2.915371 7.281365 -14.985484 2.247563 -8.477159 -10.954243 -27.441629 -4.717262 8.924443 52.242886 -55.955894 -56.986404 8.086732 2.542201 -18.636114 -4.592235 14.132542 3.898098 -35.029873 -2.241893 0.711210 -13.069397 -0.612888 3.007298 -37.098671 1.969526 -14.026638 -28.380972 0.204922 -0.957295 -12.655985 -3.867282 2.518165 -45.334324 -17.505201 -18.467312 -9.536164 -4.567497 -0.686405 -4.045543 0.629655 -11.582371 -45.301945 -7.421122 -12.887640 -27.231840 -4.774368 -1.227559 -10.226325 -6.015963 -1.885999 -6.635346 19.080959 13.559578 3.638415 11.316613 2.185891 -17.767357 0.063520 8.068337 12.617180 0.600113 -0.885449 40.255760 -11.589519 21.534590 -16.975208 31.972811 -19.844187 8.255328 -38.595913 -4.177511 16.636141 -8.899888 0.050099 24.792711 1.460651 6.696412 -4.995272 -1.838905 -1.383678 55.442539 2.655998 -13.072198 10.613556 0.023708 3.704674 8.839978 3.620342 4.298730 21.694479 10.278522 -8.235511 9.998769 4.494169 -4.589123 7.939119 1.263966 -4.970863 43.839294 9.885952 -8.278573 18.984518 3.615679 -0.062429 9.751398 4.367977 -1.068349 1.049701 -14.537304 2.173757 -1.939724 -14.248638 3.800217 15.749006 1.590435 7.524205
0.292313 0.064127 -4.870122 -3.649770 -20.539007 3.596664 6.866147 4.144382 0.826688 1.554102 18.455317 11.289190 -2.557775 -2.065818 1.136176 -6.980952 14.879344 -18.597675 -1.945374 -7.573617 -32.614567 0.130225 -14.205550 35.054577 6.406446 -10.743354 12.253761 -11.706182 1.290614 7.217836 1.343629 -3.644631 19.513639 3.256832 -0.996602 -6.337881 2.531818 -1.489815 4.672883 3.704311 10.738159 2.024243 -2.453601 7.976275 -14.381777 1.718983 -4.601869 -11.344643 -27.896702 -2.708982 7.722963 51.669724 -51.167175 -50.742184 6.214683 -4.469311 -3.973902 -2.366337 16.162554 2.285720 -34.296631 -2.089922 0.508523 -14.007708 -0.775816 3.112554 -49.407169 -2.890066 -15.931757 -35.460495 -0.976402 -1.808227 -13.487154 -3.991088 2.516648 -51.186615 -25.266882 -23.486460 -18.790558 -6.838757 1.039226 -5.090045 1.592121 -15.389105 -57.855942 -14.803613 -11.771391 -32.298603 -8.221197 -3.528965 -11.006662 -4.894193 -1.775508 -5.759331 18.764469 14.268901 3.018855 13.632812 3.391948 -17.806643 0.826251 8.181356 12.360612 -3.875007 -0.329294 39.996986 -14.243222 21.775255 -20.753292 33.989357 -26.608700 -3.087763 -35.475208 -7.649567 13.369597 -8.603068 0.080267 21.022442 1.064941 5.628326 -4.793088 -1.969365 -0.105341 45.527981 1.087625 -11.776967 4.145162 0.295521 4.048205 8.972687 2.560004 3.789911 21.330280 12.630646 -8.029724 8.752362 3.937308 -3.091904 6.968201 -0.291087 -4.978729 38.787861 9.325431 -7.743557 15.912511 3.195191 0.830775 8.314284 3.035853 -0.540467 -3.865566 -12.592727 -2.134562 -0.896115 -12.296969 4.679385 13.990521 4.638113 6.523611
0.279337 0.053291 -4.850308 -2.155166 -20.694984 4.018265 5.713812 4.995618 3.104991 1.168749 19.608624 10.265899 -1.319905 -4.273842 -1.020305 -9.959121 16.336796 -15.781836 -0.560453 -8.819377 -26.484446 -0.421419 -14.673421 22.457745 3.661964 -11.380806 11.356313 -6.684894 -0.811790 7.680806 0.754701 -3.310041 16.227362 2.731623 -1.269198 -7.106120 2.288291 -1.674749 5.191032 4.490155 10.333858 2.607035 -1.900267 7.886617 -12.026090 -0.299545 -0.625900 -11.825048 -28.193974 -2.784976 5.682529 52.649071 -44.722504 -46.973579 7.666963 -12.189681 12.377277 -6.841791 12.367990 -1.515198 -30.273737 -1.190278 1.611455 -10.261084 -0.873304 2.374911 -45.105118 -4.583622 -15.309885 -30.813911 -1.026432 -1.601234 -11.801721 -3.527502 2.652624 -48.220860 -16.746080 -26.939054 -17.821383 -6.167779 1.402475 -3.365749 2.689663 -13.972789 -50.565746 -14.406875 -11.513814 -32.404850 -7.340424 -3.570017 -8.222370 -3.723964 -1.349738 -6.185483 14.873470 11.752513 3.068923 10.967865 2.936960 -16.816668 -0.782951 7.126704 13.355457 -9.092433 -0.037656 42.283375 -15.398739 21.583820 -28.012383 41.347229 -37.260796 -21.188295 -26.215160 -13.930981 13.958012 -8.645438 0.677604 26.593838 0.938063 4.653027 -2.046073 -1.764164 0.841705 44.554264 1.409805 -10.355134 13.986480 0.282998 2.738110 10.021644 3.001037 3.906864 30.381557 19.345066 -9.199009 9.474106 4.983417 -4.630477 7.203668 -0.996363 -5.179372 46.336357 11.538927 -7.060050 18.959784 4.663949 -0.050710 9.065479 3.319287 -0.602273 -8.323473 -12.625981 -3.175606 -0.176394 -12.047802 5.637959 12.662393 5.631795 6.571512
0.266989 0.045328 -4.838819 -0.875528 -20.373243 4.392242 4.749666 5.857769 4.321631 0.971882 21.142094 9.023519 -0.686558 -5.551063 -2.813165 -10.411943 17.316622 -12.031705 0.530633 -9.457099 -22.182299 -0.696261 -15.729630 13.736136 0.804762 -12.382437 9.750115 -2.157377 -2.667457 7.374788 0.352885 -2.912054 13.146232 2.116678 -1.783245 -7.096766 2.095484 -1.393341 4.748811 5.306236 9.767392 2.489180 -0.779297 8.040865 -9.215903 -4.152692 2.935883 -12.809223 -28.888964 -3.430250 4.261943 55.088726 -38.957821 -45.999462 6.596868 -20.933405 23.195520 -9.576701 11.098905 -2.832870 -25.729734 -0.907218 2.521769 -6.376547 -1.009237 1.338676 -43.217094 -5.858642 -14.335885 -24.772308 -0.743868 -0.779171 -9.810636 -2.801974 2.933461 -44.012428 -7.869557 -27.846251 -14.561445 -3.787491 2.847604 -0.471138 3.990422 -12.124399 -44.319225 -13.545097 -10.213120 -28.502306 -5.793232 -3.238329 -5.032643 -2.248648 -0.613547 -7.935791 13.072320 11.670552 4.316478 8.706232 1.555303 -15.838426 -2.748965 6.556236 15.231173 -13.112298 -0.798449 44.909977 -15.442686 20.031012 -40.685097 43.048740 -49.914692 -36.460979 -23.410120 -16.081102 19.669056 -9.034656 -2.459682 29.128922 1.326458 4.683557 -0.842106 -1.075253 0.943248 50.458378 2.743919 -11.595686 17.784889 0.360872 2.513860 11.043212 3.657949 3.693372 36.742153 22.980051 -10.886026 10.192493 5.999461 -5.049947 7.849424 -1.419927 -7.185713 47.369724 14.593218 -5.338356 19.310265 4.494253 -0.629652 10.133940 3.835576 -0.652104 -7.392655 -13.883302 0.499289 0.265372 -12.330137 4.791233 11.441009 2.756789 6.896955
0.254431 0.038742 -4.821670 -0.167201 -20.256824 4.730942 4.319542 7.200974 5.084597 0.826438 22.747087 8.228781 -0.184104 -5.419140 -3.833741 -10.490205 17.040518 -9.168898 1.459046 -10.050824 -19.285528 -0.881618 -16.791677 9.319070 -1.266833 -12.992326 6.529043 -0.531476 -3.724071 7.048233 0.168890 -2.532394 10.794200 1.743809 -2.213575 -7.130022 1.772942 -0.777052 4.049090 6.162220 9.620995 3.105448 0.469884 7.779219 -5.403924 -8.431818 6.167155 -12.847912 -29.655767 -3.456630 1.752255 61.740746 -36.612518 -52.619301 13.370174 -22.980286 19.288979 -11.267035 11.356707 -1.288564 -26.331413 -1.113159 3.145633 -5.779239 -1.216922 1.164593 -46.411366 -6.306321 -13.814291 -25.408356 -0.580331 -0.757610 -9.363384 -2.766851 2.801737 -44.627209 -6.934400 -26.425940 -14.311758 -4.317181 1.208090 -1.286493 3.731087 -11.359160 -46.870403 -14.039059 -8.694410 -28.734837 -6.238581 -4.194054 -5.186321 -2.148115 -0.511365 -7.596171 13.727640 13.311524 4.494495 9.031019 0.871311 -16.475985 -2.041706 7.088094 17.748898 -15.580660 -0.624121 47.549889 -15.100869 19.785990 -56.907501 48.479408 -66.415489 -56.643932 -21.414768 -9.942147 20.383759 -8.358817 -2.037927 28.460316 1.359856 4.353206 0.286811 -0.782313 1.113743 53.725124 2.579905 -10.701922 20.392807 0.701808 2.313092 12.066007 4.175445 3.359694 45.466003 29.537865 -10.530160 9.333920 5.452024 -3.413857 7.442203 -2.458318 -7.739650 52.236248 16.093731 -4.296504 19.053303 5.003581 -0.611161 10.332360 3.699685 -0.938790 -7.495595 -13.376670 3.113841 0.176251 -11.691991 2.929006 11.471603 3.386804 6.311995
